<svg width="27" height="35" viewBox="0 0 27 35" fill="none" xmlns="http://www.w3.org/2000/svg">
<path d="M26.2927 7.83013L26.2927 31.3528C26.2927 33.3631 24.326 35 21.9106 35L4.38211 35C1.96669 35 -7.15496e-08 33.3631 -1.59424e-07 31.3528L-1.59424e-07 7.83013C-2.47299e-07 5.81979 1.96669 4.18293 4.38211 4.18293L5.25854 4.18293L5.25854 2.18832C5.25854 0.981827 6.4382 -2.81423e-07 7.8878 -3.44787e-07L18.4049 -8.04503e-07C19.8545 -8.67867e-07 21.0341 0.981826 21.0341 2.18832L21.0341 4.18293L21.9106 4.18293C24.326 4.18293 26.2927 5.81979 26.2927 7.83013ZM1.75285 31.3528C1.75285 32.5593 2.93251 33.5411 4.38211 33.5411L21.9106 33.5411C23.3602 33.5411 24.5398 32.5593 24.5398 31.3528L24.5398 7.83013C24.5398 6.62363 23.3602 5.64181 21.9106 5.64181L20.1577 5.64181C19.6739 5.64181 19.2813 5.31502 19.2813 4.91237L19.2813 2.18832C19.2813 1.78567 18.8887 1.45888 18.4049 1.45888L7.8878 1.45888C7.40402 1.45888 7.01138 1.78567 7.01138 2.18832L7.01138 4.91237C7.01138 5.31502 6.61874 5.64181 6.13496 5.64181L4.38211 5.64181C2.93251 5.64181 1.75285 6.62363 1.75285 7.83013L1.75285 31.3528Z" fill="white"/>
<path d="M11.6996 24.9263C11.6169 24.9263 11.5342 24.9117 11.4543 24.8842C11.1351 24.7681 10.9377 24.4474 10.9798 24.1107L11.6038 19.1214L9.51696 19.1185C9.24413 19.1185 8.99598 18.9661 8.87262 18.7252C8.74927 18.4829 8.76959 18.1926 8.92777 17.9706L14.1173 10.716C14.3147 10.4431 14.6746 10.3415 14.9851 10.4678C15.2972 10.597 15.4786 10.9235 15.4249 11.2558L14.7297 15.4934L16.773 15.4963C17.0386 15.4963 17.281 15.6414 17.4087 15.8736C17.5349 16.1058 17.5262 16.3873 17.384 16.6108L12.3106 24.591C12.1756 24.8043 11.9419 24.9263 11.6996 24.9263ZM10.9261 17.6702L12.4267 17.6716C12.6342 17.6716 12.8315 17.7616 12.9694 17.9169C13.1073 18.0722 13.1711 18.2797 13.145 18.4872L12.8199 21.0849L15.4524 16.9446L13.875 16.9431C13.6631 16.9431 13.4599 16.8488 13.3235 16.6877C13.1856 16.5252 13.1261 16.3104 13.161 16.1014L13.4904 14.09L10.9261 17.6702Z" fill="#D11E26"/>
</svg>
