<svg width="35" height="35" viewBox="0 0 35 35" fill="none" xmlns="http://www.w3.org/2000/svg">
<path d="M17.5 0C7.82776 0 0 7.82694 0 17.5C0 27.1722 7.82694 35 17.5 35C27.1722 35 35 27.1731 35 17.5C35 7.82776 27.1731 0 17.5 0ZM30.4406 18.5254H32.9144C32.6845 22.0148 31.2916 25.1912 29.1198 27.6696L28.059 26.6089C27.6586 26.2084 27.0093 26.2085 26.6089 26.6089C26.2084 27.0093 26.2084 27.6585 26.6089 28.059L27.6697 29.1197C25.1913 31.2916 22.0148 32.6845 18.5254 32.9144V31.1242C18.5254 30.5579 18.0663 30.0988 17.5 30.0988C16.9337 30.0988 16.4746 30.5579 16.4746 31.1242V32.9144C12.9852 32.6845 9.80882 31.2916 7.33038 29.1198L8.39111 28.059C8.79156 27.6586 8.79156 27.0093 8.39111 26.6089C7.99073 26.2085 7.34146 26.2085 6.94101 26.6089L5.88027 27.6696C3.70843 25.1912 2.31547 22.0148 2.08564 18.5254H3.87584C4.44213 18.5254 4.90123 18.0663 4.90123 17.5C4.90123 16.9337 4.44213 16.4746 3.87584 16.4746H2.08564C2.31547 12.9852 3.70843 9.80882 5.8802 7.33038L6.94094 8.39111C7.34139 8.79156 7.9906 8.79156 8.39104 8.39111C8.79143 7.99073 8.79143 7.34146 8.39104 6.94101L7.33031 5.88027C9.80875 3.70843 12.9852 2.31547 16.4746 2.08564V3.87584C16.4746 4.44213 16.9337 4.90123 17.5 4.90123C18.0663 4.90123 18.5254 4.44213 18.5254 3.87584V2.08564C22.0148 2.31547 25.1912 3.70843 27.6696 5.8802L26.6089 6.94101C26.2084 7.34146 26.2084 7.99066 26.6089 8.39111C27.0092 8.79156 27.6585 8.79163 28.059 8.39111L29.1197 7.33031C31.2916 9.80875 32.6845 12.9852 32.9144 16.4746H30.4406C29.8743 16.4746 29.4152 16.9337 29.4152 17.5C29.4152 18.0663 29.8743 18.5254 30.4406 18.5254V18.5254Z" fill="white"/>
<path d="M23.9703 16.4747H18.5254V7.97754C18.5254 7.41125 18.0663 6.95215 17.5 6.95215C16.9337 6.95215 16.4746 7.41125 16.4746 7.97754V17.5001C16.4746 18.0664 16.9337 18.5255 17.5 18.5255H23.9703C24.5366 18.5255 24.9957 18.0664 24.9957 17.5001C24.9957 16.9338 24.5366 16.4747 23.9703 16.4747Z" fill="#D11E26"/>
</svg>
