<?xml version="1.0" encoding="UTF-8"?><svg id="Calque_2" xmlns="http://www.w3.org/2000/svg" viewBox="0 0 241.47 218.88"><defs><style>.cls-1{fill:#010101;}.cls-2{fill:#1d1d1b;}</style></defs><g id="Calque_1-2"><g><path class="cls-2" d="M146.35,20.01l-47.18,67.99c-2.38,3.43-7.44,3.43-9.82,0L28.35,.09H0L73.21,105.61c10.19,14.69,31.91,14.69,42.1,0L188.53,.09H56.79l13.88,20,75.68-.09Z"/><path class="cls-2" d="M213.12,0l-81.34,116.49h19.28c5.68,0,11-2.78,14.26-7.43L241.47,0h-28.35Z"/></g><path class="cls-1" d="M94.2,200.83h27.46l-.05-3.57h-27c-6,0-9,1.81-9,5.41l.04,1.84v5.34h30.81v2.71c0,1.83-1.13,2.75-3.4,2.75h-27.46l.02,3.57h27.02c6.01,0,9-1.8,9-5.41v-7.18h-30.86l-.02-2.72c.02-1.81,1.16-2.72,3.42-2.72"/><path class="cls-1" d="M144.76,197.22c-10.92,.02-16.38,3.64-16.38,10.86s5.5,10.81,16.49,10.8c10.99,0,16.5-3.62,16.5-10.84s-5.54-10.82-16.61-10.82m.09,18.04c-7.86,0-11.8-2.4-11.8-7.21s3.94-7.21,11.82-7.2c7.85-.01,11.78,2.39,11.78,7.2s-3.94,7.21-11.8,7.21"/><path class="cls-1" d="M219.58,197.22c-10.91,.02-16.38,3.64-16.38,10.86s5.5,10.81,16.49,10.8c11,0,16.5-3.62,16.5-10.84s-5.53-10.82-16.61-10.82m.09,18.04c-7.87,0-11.8-2.4-11.8-7.21s3.94-7.21,11.82-7.2c7.85-.01,11.78,2.39,11.78,7.2s-3.93,7.21-11.8,7.21"/><path class="cls-1" d="M167.16,208.08c0,7.22,5.5,10.82,16.49,10.8h16.49v-3.62h-16.51c-7.87,0-11.8-2.4-11.8-7.21s3.94-7.21,11.82-7.2h16.49v-3.62h-16.61c-10.92,.02-16.37,3.64-16.37,10.86"/><path class="cls-1" d="M134.62,181.8c-.3-.53-.7-1-1.21-1.4-.51-.4-1.1-.71-1.79-.95-.68-.23-1.41-.34-2.18-.34h-1.74c-.53,.03-1.01-.02-1.45-.17-.45-.15-.82-.36-1.14-.61-.32-.26-.58-.56-.77-.89-.19-.34-.29-.7-.29-1.1,0-.79,.35-1.46,1.04-2.01,.7-.54,1.55-.81,2.57-.81,1.13,0,2.17,.16,3.1,.48,.93,.32,1.72,.69,2.35,1.12,.07,.05,.17,.08,.31,.08,.15,0,.27-.03,.34-.08l.86-.67c.16-.16,.16-.3,0-.42-.86-.6-1.89-1.1-3.07-1.49-1.18-.39-2.47-.59-3.87-.61-.76,0-1.49,.11-2.16,.34-.69,.23-1.28,.55-1.79,.95-.51,.4-.91,.87-1.21,1.4-.29,.53-.44,1.1-.44,1.7s.15,1.17,.44,1.7c.3,.53,.7,1,1.21,1.4,.51,.4,1.11,.72,1.79,.94,.68,.23,1.41,.35,2.18,.35h1.77c1.02,0,1.88,.27,2.57,.81,.69,.54,1.04,1.21,1.04,2.01,0,.39-.1,.75-.29,1.09-.2,.33-.45,.63-.77,.89-.32,.26-.7,.46-1.15,.6-.44,.15-.91,.23-1.41,.23-1.14,0-2.17-.16-3.11-.47-.93-.32-1.71-.7-2.35-1.12-.07-.05-.17-.08-.31-.08-.16,0-.27,.03-.34,.08l-.85,.66c-.16,.16-.16,.31,0,.43,.87,.61,1.88,1.1,3.07,1.49,1.18,.39,2.48,.59,3.89,.61,.75-.03,1.46-.16,2.14-.4,.68-.23,1.28-.55,1.79-.95,.51-.4,.92-.94,1.23-1.62,.31-.68,.45-1.17,.42-1.48,0-.6-.15-1.17-.44-1.71"/><path class="cls-1" d="M140.95,172.24v10.38c0,.52,.12,1,.38,1.45,.25,.45,.59,.85,1.02,1.18,.43,.33,.93,.61,1.5,.8,.59,.2,1.22,.29,1.88,.29s1.28-.09,1.86-.29c.58-.19,1.09-.46,1.52-.8,.43-.34,.77-.73,1.02-1.17,.25-.46,.37-.95,.37-1.47v-10.38c0-.17,.12-.26,.34-.26h1.36c.23,0,.34,.09,.34,.26v10.38c0,.74-.18,1.44-.53,2.09-.35,.65-.83,1.21-1.45,1.69-.62,.48-1.34,.86-2.18,1.14-.82,.27-1.7,.4-2.66,.4s-1.84-.14-2.68-.41c-.83-.27-1.55-.65-2.17-1.13-.61-.48-1.1-1.04-1.47-1.68-.34-.65-.51-1.36-.51-2.1v-10.38c0-.17,.12-.26,.34-.26h1.36c.23,0,.34,.09,.34,.26"/><path class="cls-1" d="M163.97,171.98c.95,0,1.85,.14,2.68,.41,.83,.28,1.56,.66,2.17,1.13,.61,.48,1.1,1.04,1.45,1.69,.36,.65,.53,1.35,.53,2.09s-.18,1.44-.53,2.09c-.35,.65-.84,1.21-1.45,1.69-.61,.48-1.34,.86-2.17,1.13-.83,.28-1.73,.41-2.68,.41h-4.45c-.18,0-.3,.06-.34,.19v4.87c0,.18-.11,.26-.34,.26h-1.36c-.23,0-.34-.09-.34-.26v-15.44c0-.17,.12-.26,.35-.26h6.49Zm-4.79,8.78c0,.18,.12,.27,.34,.27h4.45c.66,0,1.28-.1,1.86-.29,.58-.19,1.09-.46,1.53-.8,.43-.34,.77-.73,1.02-1.18,.25-.45,.38-.94,.38-1.45s-.13-1-.38-1.45c-.25-.45-.59-.85-1.02-1.18-.44-.34-.94-.6-1.53-.8-.58-.2-1.2-.29-1.86-.29h-4.45c-.18,0-.3,.06-.34,.19v7Z"/><path class="cls-1" d="M176.18,186.14c0,.15,.12,.21,.34,.21h10.91c.23,0,.34,.09,.34,.27v1.06c0,.18-.11,.26-.34,.26h-12.96c-.23,0-.34-.09-.34-.26v-15.44c0-.17,.11-.26,.34-.26h12.96c.23,0,.34,.09,.34,.26v1.07c0,.17-.11,.26-.34,.26h-10.91c-.22,0-.34,.09-.34,.27v5.11c0,.18,.12,.27,.34,.27h7.5c.23,0,.34,.09,.34,.26v1.06c0,.18-.11,.27-.34,.27h-7.5c-.18,0-.29,.07-.34,.21v5.11Z"/><path class="cls-1" d="M198.68,171.98c.95,0,1.84,.14,2.68,.42,.83,.27,1.55,.65,2.16,1.13,.61,.48,1.09,1.05,1.43,1.7,.36,.64,.54,1.33,.54,2.08s-.18,1.45-.54,2.1c-.34,.64-.82,1.2-1.43,1.68-.6,.46-1.27,.82-2.05,1.09,1.16,.61,2.1,1.39,2.83,2.35,.73,.96,1.12,2.02,1.19,3.17,0,.18-.11,.26-.34,.26h-1.37c-.23,0-.34-.09-.34-.26-.05-.7-.27-1.34-.65-1.94-.39-.62-.88-1.17-1.5-1.62-.47-.36-1.02-.66-1.63-.9-.16-.07-.33-.13-.52-.19-.8-.27-1.64-.4-2.52-.4h-2.39c-.18,0-.3,.06-.34,.19v4.87c0,.18-.11,.26-.34,.26h-1.36c-.23,0-.34-.09-.34-.26v-15.44c0-.18,.12-.27,.34-.27h6.48Zm-4.43,9.05h4.43c.66,0,1.28-.1,1.86-.29,.58-.19,1.08-.46,1.52-.79,.43-.34,.77-.73,1.02-1.17,.16-.29,.26-.58,.31-.88v-.03c.04-.18,.07-.36,.07-.56,0-.51-.13-1-.38-1.45-.25-.45-.59-.85-1.02-1.18-.43-.34-.94-.6-1.53-.8-.57-.2-1.18-.29-1.84-.29h-4.43c-.18,0-.3,.07-.34,.19v7c0,.18,.11,.27,.34,.27"/><g><path class="cls-1" d="M2.34,199.91c0,.58,.47,1.04,1.04,1.04H12.31c.58,0,1.04-.47,1.04-1.04l.04-13.47c.03-3.31,1.55-4.79,4.95-4.79h48.16c.28,0,.54-.11,.74-.31,.19-.2,.31-.47,.3-.74l-.09-7.64c0-.57-.47-1.03-1.04-1.03H19.07c-5.46,0-9.65,1.04-12.45,3.1-2.9,2.13-4.37,5.33-4.37,9.52v.02l.09,3.93v11.41Z"/><path class="cls-1" d="M67.45,190.9c0-.57-.47-1.04-1.04-1.04h-9.02c-.57,0-1.04,.47-1.04,1.04v13.44c0,3.34-1.52,4.82-4.91,4.82H3.29c-.28,0-.55,.11-.74,.31-.2,.2-.3,.47-.3,.75l.09,7.64c0,.57,.47,1.03,1.04,1.03H50.72c5.46,0,9.65-1.04,12.45-3.1,2.9-2.13,4.37-5.33,4.37-9.53v-.02l-.09-3.93v-11.41Z"/></g></g></svg>