<svg width="35" height="40" viewBox="0 0 35 40" fill="none" xmlns="http://www.w3.org/2000/svg">
<path d="M14.4857 22L16.825 19.5827C17.1836 19.2123 17.1738 18.6213 16.8033 18.2628C16.4328 17.9041 15.8418 17.914 15.4832 18.2844L12.8671 20.9877V18.9335C12.8671 18.418 12.4491 18 11.9335 18C11.418 18 11 18.418 11 18.9335V25.0665C11 25.582 11.418 26 11.9335 26C12.4491 26 12.8671 25.582 12.8671 25.0665V23.0123L15.4832 25.7156C15.6663 25.9049 15.9101 26 16.1542 26C16.3879 26 16.622 25.9127 16.8033 25.7373C17.1738 25.3787 17.1834 24.7878 16.825 24.4173L14.4857 22Z" fill="#D11E26"/>
<path d="M23.1773 21.3301H21.7759C21.2604 21.3301 20.8424 21.7481 20.8424 22.2637C20.8424 22.7792 21.2604 23.1972 21.7759 23.1972H22.2284C22.1394 23.7275 21.6772 24.1328 21.122 24.1328C20.5035 24.1328 20.0003 23.6296 20.0003 23.0111V20.9887C20.0003 20.3702 20.5035 19.867 21.122 19.867C21.47 19.867 21.7926 20.0246 22.0073 20.2996C22.3244 20.7059 22.9111 20.7783 23.3175 20.461C23.7239 20.1437 23.7962 19.5571 23.479 19.1508C22.9082 18.4195 22.0491 18 21.1221 18C19.4741 18 18.1333 19.3408 18.1333 20.9888V23.0112C18.1333 24.6592 19.4741 25.9999 21.1221 25.9999C22.7701 25.9999 24.1109 24.6592 24.1109 23.0112V22.2638C24.1109 21.7481 23.6929 21.3301 23.1773 21.3301Z" fill="#D11E26"/>
<path d="M22.3499 4.25C22.3499 5.13842 21.8772 5.9968 21.0063 6.65777C20.1348 7.31915 18.8976 7.75 17.4999 7.75C16.1022 7.75 14.865 7.31915 13.9935 6.65777C13.1226 5.9968 12.6499 5.13842 12.6499 4.25C12.6499 3.36158 13.1226 2.5032 13.9935 1.84223C14.865 1.18085 16.1022 0.75 17.4999 0.75C18.8976 0.75 20.1348 1.18085 21.0063 1.84223C21.8772 2.5032 22.3499 3.36158 22.3499 4.25Z" stroke="white" stroke-width="1.5"/>
<path d="M3.73543 13.6621C4.11303 10.1019 7.11619 7.40039 10.6964 7.40039H24.0291C27.5813 7.40039 30.5703 10.061 30.9819 13.5892L32.9652 30.5892C33.4505 34.7485 30.1998 38.4004 26.0124 38.4004H8.89335C4.73524 38.4004 1.49384 34.797 1.9324 30.6621L3.73543 13.6621Z" stroke="white" stroke-width="2"/>
</svg>
